{
  "accessors": [
    {
      "bufferView": 2,
      "componentType": 5126,
      "count": 6018,
      "max": [
        1.7464770078659058,
        1.8532880544662476,
        0.23359030485153198
      ],
      "min": [
        -1.8266470432281494,
        -2.99680495262146,
        -0.34546840190887451
      ],
      "type": "VEC3"
    },
    {
      "bufferView": 2,
      "byteOffset": 72216,
      "componentType": 5126,
      "count": 6018,
      "max": [
        1,
        1,
        1
      ],
      "min": [
        -1,
        -1,
        -0.99996757507324219
      ],
      "type": "VEC3"
    },
    {
      "bufferView": 3,
      "componentType": 5126,
      "count": 6018,
      "max": [
        1,
        0.99975836277008057,
        0.9994850754737854,
        1
      ],
      "min": [
        -1,
        -0.99968212842941284,
        -0.99999278783798218,
        -1
      ],
      "type": "VEC4"
    },
    {
      "bufferView": 1,
      "componentType": 5126,
      "count": 6018,
      "max": [
        0.72237807512283325,
        0.93848830461502075
      ],
      "min": [
        0.059338271617889404,
        0.089333586394786835
      ],
      "type": "VEC2"
    },
    {
      "bufferView": 0,
      "componentType": 5125,
      "count": 34020,
      "max": [
        6017
      ],
      "min": [
        0
      ],
      "type": "SCALAR"
    },
    {
      "bufferView": 2,
      "byteOffset": 144432,
      "componentType": 5126,
      "count": 3592,
      "max": [
        1.4972740411758423,
        1.4593210220336914,
        0.060061268508434296
      ],
      "min": [
        -1.4127629995346069,
        -1.4392069578170776,
        -0.15502570569515228
      ],
      "type": "VEC3"
    },
    {
      "bufferView": 2,
      "byteOffset": 187536,
      "componentType": 5126,
      "count": 3592,
      "max": [
        0.98830050230026245,
        0.99177390336990356,
        1
      ],
      "min": [
        -0.96392327547073364,
        -0.97298967838287354,
        -1
      ],
      "type": "VEC3"
    },
    {
      "bufferView": 3,
      "byteOffset": 96288,
      "componentType": 5126,
      "count": 3592,
      "max": [
        1,
        0.53051823377609253,
        0.96916157007217407,
        1
      ],
      "min": [
        -0.27581149339675903,
        -0.52432107925415039,
        -0.98860138654708862,
        -1
      ],
      "type": "VEC4"
    },
    {
      "bufferView": 1,
      "byteOffset": 48144,
      "componentType": 5126,
      "count": 3592,
      "max": [
        0.6920279860496521,
        0.64534372091293335
      ],
      "min": [
        0.40859049558639526,
        0.14228789508342743
      ],
      "type": "VEC2"
    },
    {
      "bufferView": 0,
      "byteOffset": 136080,
      "componentType": 5125,
      "count": 21696,
      "max": [
        3591
      ],
      "min": [
        0
      ],
      "type": "SCALAR"
    },
    {
      "bufferView": 2,
      "byteOffset": 230640,
      "componentType": 5126,
      "count": 7981,
      "max": [
        0.58507651090621948,
        0.45865660905838013,
        0.057340618222951889
      ],
      "min": [
        -0.44602879881858826,
        -0.9093325138092041,
        0.04525655135512352
      ],
      "type": "VEC3"
    },
    {
      "bufferView": 2,
      "byteOffset": 326412,
      "componentType": 5126,
      "count": 7981,
      "max": [
        1,
        0.99999308586120605,
        1
      ],
      "min": [
        -0.99986022710800171,
        -0.99915558099746704,
        -1
      ],
      "type": "VEC3"
    },
    {
      "bufferView": 3,
      "byteOffset": 153760,
      "componentType": 5126,
      "count": 7981,
      "max": [
        1,
        0.76703876256942749,
        0.99999982118606567,
        1
      ],
      "min": [
        -0.80279237031936646,
        -0.9097369909286499,
        -0.9999997615814209,
        -1
      ],
      "type": "VEC4"
    },
    {
      "bufferView": 1,
      "byteOffset": 76880,
      "componentType": 5126,
      "count": 7981,
      "max": [
        0.57391959428787231,
        0.40682008862495422
      ],
      "min": [
        0.33113420009613037,
        0.15017950534820557
      ],
      "type": "VEC2"
    },
    {
      "bufferView": 0,
      "byteOffset": 222864,
      "componentType": 5125,
      "count": 13164,
      "max": [
        7980
      ],
      "min": [
        0
      ],
      "type": "SCALAR"
    },
    {
      "bufferView": 2,
      "byteOffset": 422184,
      "componentType": 5126,
      "count": 513,
      "max": [
        0.7776758074760437,
        0.769317626953125,
        0.0046095838770270348
      ],
      "min": [
        -0.77767562866210938,
        -0.76931750774383545,
        -0.028147689998149872
      ],
      "type": "VEC3"
    },
    {
      "bufferView": 2,
      "byteOffset": 428340,
      "componentType": 5126,
      "count": 513,
      "max": [
        0.93372660875320435,
        0.93500697612762451,
        1
      ],
      "min": [
        -0.93372660875320435,
        -0.93500697612762451,
        0.35462939739227295
      ],
      "type": "VEC3"
    },
    {
      "bufferView": 3,
      "byteOffset": 281456,
      "componentType": 5126,
      "count": 513,
      "max": [
        1,
        0.032476607710123062,
        0.93372660875320435,
        1
      ],
      "min": [
        0.35798704624176025,
        -0.037599332630634308,
        -0.93372654914855957,
        1
      ],
      "type": "VEC4"
    },
    {
      "bufferView": 1,
      "byteOffset": 140728,
      "componentType": 5126,
      "count": 513,
      "max": [
        0.62494397163391113,
        0.52992939949035645
      ],
      "min": [
        0.47427299618721008,
        0.2620697021484375
      ],
      "type": "VEC2"
    },
    {
      "bufferView": 0,
      "byteOffset": 275520,
      "componentType": 5125,
      "count": 2880,
      "max": [
        512
      ],
      "min": [
        0
      ],
      "type": "SCALAR"
    }
  ],
  "asset": {
    "extras": {
      "author": "mellydeeis (https://sketchfab.com/mellydeeis)",
      "license": "CC-BY-4.0 (http://creativecommons.org/licenses/by/4.0/)",
      "source": "https://sketchfab.com/3d-models/old-watch-da2b0da129944281a61954cca10b54a4",
      "title": "Old Watch"
    },
    "generator": "Sketchfab-6.87.0",
    "version": "2.0"
  },
  "bufferViews": [
    {
      "buffer": 0,
      "byteLength": 287040,
      "byteOffset": 0,
      "name": "floatBufferViews",
      "target": 34963
    },
    {
      "buffer": 0,
      "byteLength": 144832,
      "byteOffset": 287040,
      "byteStride": 8,
      "name": "floatBufferViews",
      "target": 34962
    },
    {
      "buffer": 0,
      "byteLength": 434496,
      "byteOffset": 431872,
      "byteStride": 12,
      "name": "floatBufferViews",
      "target": 34962
    },
    {
      "buffer": 0,
      "byteLength": 289664,
      "byteOffset": 866368,
      "byteStride": 16,
      "name": "floatBufferViews",
      "target": 34962
    }
  ],
  "buffers": [
    {
      "byteLength": 1156032,
      "uri": "scene.bin"
    }
  ],
  "images": [
    {
      "uri": "textures/Material_baseColor.png"
    },
    {
      "uri": "textures/Material_metallicRoughness.png"
    }
  ],
  "materials": [
    {
      "doubleSided": true,
      "emissiveFactor": [
        0,
        0,
        0
      ],
      "name": "Material",
      "pbrMetallicRoughness": {
        "baseColorFactor": [
          0.62893081761006286,
          0.62893081761006286,
          0.62893081761006286,
          1
        ],
        "baseColorTexture": {
          "index": 0,
          "texCoord": 0
        },
        "metallicFactor": 0.98742138364779874,
        "metallicRoughnessTexture": {
          "index": 1,
          "texCoord": 0
        },
        "roughnessFactor": 0.27672955974842767
      }
    },
    {
      "doubleSided": true,
      "emissiveFactor": [
        0,
        0,
        0
      ],
      "name": "Material_002",
      "pbrMetallicRoughness": {
        "baseColorFactor": [
          1,
          1,
          1,
          1
        ],
        "baseColorTexture": {
          "index": 0,
          "texCoord": 0
        },
        "metallicFactor": 0,
        "roughnessFactor": 0.55278640449999994
      }
    }
  ],
  "meshes": [
    {
      "name": "Material-material",
      "primitives": [
        {
          "attributes": {
            "NORMAL": 1,
            "POSITION": 0,
            "TANGENT": 2,
            "TEXCOORD_0": 3
          },
          "indices": 4,
          "material": 0,
          "mode": 4
        }
      ]
    },
    {
      "name": "Material-material",
      "primitives": [
        {
          "attributes": {
            "NORMAL": 6,
            "POSITION": 5,
            "TANGENT": 7,
            "TEXCOORD_0": 8
          },
          "indices": 9,
          "material": 0,
          "mode": 4
        }
      ]
    },
    {
      "name": "Material_002-material",
      "primitives": [
        {
          "attributes": {
            "NORMAL": 11,
            "POSITION": 10,
            "TANGENT": 12,
            "TEXCOORD_0": 13
          },
          "indices": 14,
          "material": 1,
          "mode": 4
        }
      ]
    },
    {
      "name": "Material-material",
      "primitives": [
        {
          "attributes": {
            "NORMAL": 16,
            "POSITION": 15,
            "TANGENT": 17,
            "TEXCOORD_0": 18
          },
          "indices": 19,
          "material": 0,
          "mode": 4
        }
      ]
    }
  ],
  "nodes": [
    {
      "children": [
        1
      ],
      "name": "RootNode (gltf orientation matrix)",
      "rotation": [
        -0.70710678118654746,
        -0,
        -0,
        0.70710678118654757
      ]
    },
    {
      "children": [
        2
      ],
      "name": "RootNode (model correction matrix)"
    },
    {
      "children": [
        3,
        5,
        8
      ],
      "name": "Collada visual scene group"
    },
    {
      "children": [
        4
      ],
      "matrix": [
        1,
        0,
        0,
        0,
        0,
        -4.3711400000000002e-08,
        1,
        0,
        0,
        -1.2726120000000001,
        -5.5627599999999998e-08,
        0,
        0.02499815,
        0.012089839999999999,
        0.60485049999999996,
        1
      ],
      "name": "Circle_005"
    },
    {
      "mesh": 0,
      "name": "Material-material"
    },
    {
      "children": [
        6,
        7
      ],
      "matrix": [
        1.016815,
        0,
        0,
        0,
        0,
        -4.4105399999999999e-08,
        1.009015,
        0,
        0,
        -2.0549680000000001,
        -8.9825499999999999e-08,
        0,
        -0.078332239999999997,
        -0.1955857,
        -0.62922020000000001,
        1
      ],
      "name": "Circle_003"
    },
    {
      "mesh": 1,
      "name": "Material-material"
    },
    {
      "mesh": 2,
      "name": "Material_002-material"
    },
    {
      "children": [
        9
      ],
      "matrix": [
        1,
        0,
        0,
        0,
        0,
        -4.3711400000000002e-08,
        1,
        0,
        0,
        -1.2726120000000001,
        -5.5627599999999998e-08,
        0,
        -0.021521209999999999,
        -0.299178,
        -0.61400069999999995,
        1
      ],
      "name": "Circle_001"
    },
    {
      "mesh": 3,
      "name": "Material-material"
    }
  ],
  "samplers": [
    {
      "magFilter": 9729,
      "minFilter": 9987,
      "wrapS": 10497,
      "wrapT": 10497
    }
  ],
  "scene": 0,
  "scenes": [
    {
      "name": "OSG_Scene",
      "nodes": [
        0
      ]
    }
  ],
  "textures": [
    {
      "sampler": 0,
      "source": 0
    },
    {
      "sampler": 0,
      "source": 1
    }
  ]
}

