{
  "accessors": [
    {
      "bufferView": 2,
      "componentType": 5126,
      "count": 3118,
      "max": [
        1.1318349838256836,
        0.93155002593994141,
        0.40008500218391418
      ],
      "min": [
        -1.1239290237426758,
        0.0089570004492998123,
        -0.41203200817108154
      ],
      "type": "VEC3"
    },
    {
      "bufferView": 2,
      "byteOffset": 37416,
      "componentType": 5126,
      "count": 3118,
      "max": [
        1,
        1,
        1
      ],
      "min": [
        -1,
        -1,
        -1
      ],
      "type": "VEC3"
    },
    {
      "bufferView": 3,
      "componentType": 5126,
      "count": 3118,
      "max": [
        0.99999988079071045,
        1,
        1,
        1
      ],
      "min": [
        -0.99978631734848022,
        -1,
        -0.99999701976776123,
        1
      ],
      "type": "VEC4"
    },
    {
      "bufferView": 1,
      "componentType": 5126,
      "count": 3118,
      "max": [
        0.99360001087188721,
        0.97829997539520264
      ],
      "min": [
        0.006399999838322401,
        0.006399999838322401
      ],
      "type": "VEC2"
    },
    {
      "bufferView": 0,
      "componentType": 5125,
      "count": 13848,
      "max": [
        3117
      ],
      "min": [
        0
      ],
      "type": "SCALAR"
    }
  ],
  "asset": {
    "extras": {
      "author": "vegu (https://sketchfab.com/iamvegu)",
      "license": "CC-BY-NC-4.0 (http://creativecommons.org/licenses/by-nc/4.0/)",
      "source": "https://sketchfab.com/models/1bfaac1765c54c09af36336c4245e966",
      "title": "Sofa"
    },
    "generator": "Sketchfab-3.19.6",
    "version": "2.0"
  },
  "bufferViews": [
    {
      "buffer": 0,
      "byteLength": 55392,
      "byteOffset": 0,
      "name": "floatBufferViews",
      "target": 34963
    },
    {
      "buffer": 0,
      "byteLength": 24944,
      "byteOffset": 55392,
      "byteStride": 8,
      "name": "floatBufferViews",
      "target": 34962
    },
    {
      "buffer": 0,
      "byteLength": 74832,
      "byteOffset": 80336,
      "byteStride": 12,
      "name": "floatBufferViews",
      "target": 34962
    },
    {
      "buffer": 0,
      "byteLength": 49888,
      "byteOffset": 155168,
      "byteStride": 16,
      "name": "floatBufferViews",
      "target": 34962
    }
  ],
  "buffers": [
    {
      "byteLength": 205056,
      "uri": "scene.bin"
    }
  ],
  "images": [
    {
      "uri": "textures/Couch_04_01_metallicRoughness.png"
    },
    {
      "uri": "textures/Couch_04_01_normal.jpeg"
    },
    {
      "uri": "textures/Couch_04_01_baseColor.jpeg"
    }
  ],
  "materials": [
    {
      "doubleSided": false,
      "emissiveFactor": [
        0,
        0,
        0
      ],
      "name": "Couch_04_01",
      "normalTexture": {
        "index": 1,
        "scale": 1,
        "texCoord": 0
      },
      "occlusionTexture": {
        "index": 0,
        "strength": 1,
        "texCoord": 0
      },
      "pbrMetallicRoughness": {
        "baseColorFactor": [
          1,
          1,
          1,
          1
        ],
        "baseColorTexture": {
          "index": 2,
          "texCoord": 0
        },
        "metallicFactor": 1,
        "metallicRoughnessTexture": {
          "index": 0,
          "texCoord": 0
        },
        "roughnessFactor": 1
      }
    }
  ],
  "meshes": [
    {
      "primitives": [
        {
          "attributes": {
            "NORMAL": 1,
            "POSITION": 0,
            "TANGENT": 2,
            "TEXCOORD_0": 3
          },
          "indices": 4,
          "material": 0,
          "mode": 4
        }
      ]
    }
  ],
  "nodes": [
    {
      "children": [
        1
      ],
      "name": "RootNode (gltf orientation matrix)",
      "rotation": [
        -0.70710678118654746,
        -0,
        -0,
        0.70710678118654757
      ]
    },
    {
      "children": [
        2
      ],
      "name": "RootNode (model correction matrix)"
    },
    {
      "children": [
        3
      ],
      "name": "root"
    },
    {
      "children": [
        4
      ],
      "matrix": [
        1,
        0,
        0,
        0,
        0,
        2.2204460492503131e-16,
        1,
        0,
        0,
        -1,
        2.2204460492503131e-16,
        0,
        0,
        0,
        0,
        1
      ],
      "name": "Correction matrix"
    },
    {
      "children": [
        5
      ],
      "name": "GLTF_SceneRootNode"
    },
    {
      "children": [
        6
      ],
      "matrix": [
        -1,
        0,
        -8.7422776573475858e-08,
        0,
        0,
        1,
        0,
        0,
        8.7422776573475858e-08,
        0,
        -1,
        0,
        0,
        0,
        0,
        1
      ],
      "name": "UnityGlTF_correctionMatrix_0"
    },
    {
      "children": [
        7
      ],
      "matrix": [
        1,
        0,
        0,
        0,
        0,
        1,
        0,
        0,
        0,
        0,
        1,
        0,
        5.2090001106262207,
        0,
        0.064000003039836884,
        1
      ],
      "name": "node_Couch_03_9976_1"
    },
    {
      "mesh": 0,
      "name": ""
    }
  ],
  "samplers": [
    {
      "magFilter": 9729,
      "minFilter": 9987,
      "wrapS": 10497,
      "wrapT": 10497
    }
  ],
  "scene": 0,
  "scenes": [
    {
      "name": "OSG_Scene",
      "nodes": [
        0
      ]
    }
  ],
  "textures": [
    {
      "sampler": 0,
      "source": 0
    },
    {
      "sampler": 0,
      "source": 1
    },
    {
      "sampler": 0,
      "source": 2
    }
  ]
}

